<svg xmlns="http://www.w3.org/2000/svg" viewBox="0 0 32 32" fill="#0ea5e9" shape-rendering="crispEdges">
  <!-- Col 1: 2 blocks -->
  <rect x="1" y="12" width="3" height="3"/>
  <rect x="1" y="16" width="3" height="3"/>

  <!-- Col 2: 5 blocks -->
  <rect x="6" y="6" width="3" height="3"/>
  <rect x="6" y="10" width="3" height="3"/>
  <rect x="6" y="14" width="3" height="3"/>
  <rect x="6" y="18" width="3" height="3"/>
  <rect x="6" y="22" width="3" height="3"/>

  <!-- Col 3: 3 blocks -->
  <rect x="11" y="10" width="3" height="3"/>
  <rect x="11" y="14" width="3" height="3"/>
  <rect x="11" y="18" width="3" height="3"/>

  <!-- Col 4: 7 blocks -->
  <rect x="16" y="2" width="3" height="3"/>
  <rect x="16" y="6" width="3" height="3"/>
  <rect x="16" y="10" width="3" height="3"/>
  <rect x="16" y="14" width="3" height="3"/>
  <rect x="16" y="18" width="3" height="3"/>
  <rect x="16" y="22" width="3" height="3"/>
  <rect x="16" y="26" width="3" height="3"/>

  <!-- Col 5: 4 blocks -->
  <rect x="21" y="8" width="3" height="3"/>
  <rect x="21" y="12" width="3" height="3"/>
  <rect x="21" y="16" width="3" height="3"/>
  <rect x="21" y="20" width="3" height="3"/>

  <!-- Col 6: 2 blocks -->
  <rect x="26" y="12" width="3" height="3"/>
  <rect x="26" y="16" width="3" height="3"/>
</svg>
